<svg fill="#000000" xmlns="http://www.w3.org/2000/svg"  viewBox="0 0 50 50" width="50px" height="50px"><path d="M45.048,15.083c-0.731-2.2-1.96-5.883-7.748-5.883c-3.62,0-5.792,2.532-7.229,4.208c-0.307,0.359-0.705,0.824-0.961,1.046C27.938,13.591,26.491,13.1,25.1,13.1c-1.463,0-2.999,0.528-4.04,1.363c-0.263-0.22-0.683-0.712-1.004-1.089C18.639,11.711,16.498,9.2,12.9,9.2c-6.034,0-7.157,3.851-7.75,5.89c-0.754,2.315-1.974,6.954-2.958,10.816C4.293,24.1,7.018,23,10,23c6.617,0,12,5.383,12,12c0,0.499-0.04,0.988-0.1,1.473c0.021,0.008,0.042,0.017,0.064,0.023c0.102,0.036,0.209,0.068,0.316,0.102c0.113,0.035,0.226,0.071,0.344,0.104c0.128,0.033,0.263,0.063,0.398,0.091c0.109,0.022,0.215,0.049,0.328,0.067c0.163,0.029,0.334,0.049,0.506,0.067c0.096,0.013,0.187,0.027,0.286,0.036C24.418,36.986,24.703,37,25,37s0.582-0.014,0.857-0.037c0.097-0.009,0.188-0.023,0.281-0.035c0.174-0.021,0.348-0.039,0.512-0.068c0.111-0.02,0.216-0.045,0.322-0.067c0.137-0.028,0.273-0.058,0.403-0.091c0.116-0.031,0.228-0.066,0.339-0.102c0.109-0.033,0.219-0.066,0.322-0.104c0.021-0.009,0.041-0.017,0.063-0.022C28.04,35.988,28,35.499,28,35c0-6.617,5.383-12,12-12c3.086,0,5.895,1.181,8.023,3.102C47.016,22.203,45.764,17.446,45.048,15.083z M25,31c-1.103,0-2-0.896-2-2s0.897-2,2-2c1.104,0,2,0.896,2,2S26.104,31,25,31z"/><path d="M10 25c-3.97 0-7.39 2.318-9.004 5.672-.001.005-.003.012-.004.016-.305.636-.544 1.307-.713 2.004-.007.031-.016.062-.023.093-.07.303-.121.612-.162.927-.008.063-.021.121-.028.184C.023 34.257 0 34.626 0 35c0 5.514 4.486 10 10 10 .339 0 .674-.018 1.005-.051.167-.018.328-.049.492-.073.159-.024.321-.041.478-.073.224-.045.441-.104.66-.164.09-.024.183-.043.272-.07.257-.078.508-.172.756-.271.044-.019.09-.03.135-.049.279-.115.551-.243.816-.382.01-.006.02-.01.03-.016 3.048-1.608 5.167-4.75 5.333-8.393C19.984 35.307 20 35.154 20 35 20 29.477 15.523 25 10 25zM10 41c-3.364 0-6-2.636-6-6 0-.553.448-1 1-1s1 .447 1 1c0 2.243 1.757 4 4 4 .552 0 1 .447 1 1S10.552 41 10 41zM49.912 33.743c-.021-.179-.051-.356-.082-.532-.023-.141-.053-.277-.083-.414-.033-.148-.073-.294-.113-.439-.038-.144-.075-.289-.122-.43C48.212 27.914 44.439 25 40 25c-5.514 0-10 4.486-10 10 0 .154.018.305.023.457l0 0c.074 1.652.55 3.199 1.334 4.55.006.011.012.019.018.028.15.258.313.509.484.752.015.02.029.037.043.056.166.231.342.455.525.671.033.037.067.073.102.11.172.192.348.382.533.562.039.039.082.074.123.111 0 .001 0 .001.002.002.185.174.373.342.571.501.068.056.142.104.212.159.178.137.355.27.543.393.092.061.188.113.281.172.171.104.342.209.52.306.121.063.248.12.375.181.16.078.319.159.483.227.155.064.316.117.476.176.143.052.283.107.429.15.162.051.331.088.497.129.146.037.293.08.443.11.109.022.224.036.336.052.113.02.229.037.344.054.098.015.193.032.293.044C39.322 44.982 39.659 45 40 45c5.514 0 10-4.486 10-10 0-.311-.02-.617-.047-.92C49.941 33.967 49.927 33.855 49.912 33.743zM41 41c-3.363 0-6-2.636-6-6 0-.553.447-1 1-1s1 .447 1 1c0 2.243 1.757 4 4 4 .553 0 1 .447 1 1S41.553 41 41 41zM12.9 7.2c3.225 0 5.47 1.553 7.059 3.104C19.624 7.28 17.128 5 14 5c-2.15 0-4.05 1.132-5.092 2.835C10.01 7.445 11.316 7.2 12.9 7.2zM37.3 7.2c1.468 0 2.697.217 3.746.568C39.995 6.104 38.121 5 36 5c-3.189 0-5.723 2.372-5.975 5.487C31.639 8.873 33.949 7.2 37.3 7.2z"/></svg>